<svg width="1440" height="216" viewBox="0 0 1440 216" fill="none" xmlns="http://www.w3.org/2000/svg">
<g filter="url(#filter0_d)">
<path d="M0 131.382L34.4016 135.83C68.8033 140.383 137.597 149.279 206.083 150.52C274.718 151.762 342.878 145.141 411.523 142.245C480 139.348 548.8 139.968 617.28 157.555C685.92 175.142 754.08 209.694 822.72 207.935C891.2 206.177 960 168.314 1028.48 157.969C1097.12 147.623 1165.28 164.797 1233.92 174.107C1302.4 183.418 1371.2 184.866 1405.6 185.486L1440 186.211V0H1405.6C1371.2 0 1302.4 0 1233.92 0C1165.28 0 1097.12 0 1028.48 0C960 0 891.2 0 822.72 0C754.08 0 685.92 0 617.28 0C548.8 0 480 0 411.523 0C342.878 0 274.718 0 206.083 0C137.597 0 68.8033 0 34.4016 0H0V131.382Z" fill="#29423F"/>
<path d="M8.9407e-07 86.7741L34.4017 95.5552C68.8033 104.335 137.597 121.897 206.083 118.591C274.718 115.389 342.878 91.2165 411.523 83.985C480 76.7534 548.8 86.4642 617.28 93.7984C685.92 101.236 754.08 106.402 822.72 109.501C891.2 112.6 960 113.632 1028.48 107.951C1097.12 102.269 1165.28 89.8732 1233.92 90.1831C1302.4 90.5966 1371.2 103.613 1405.6 110.223L1440 116.732V3.11003e-06H1405.6C1371.2 3.11003e-06 1302.4 3.11003e-06 1233.92 3.11003e-06C1165.28 3.11003e-06 1097.12 3.11003e-06 1028.48 3.11003e-06C960 3.11003e-06 891.2 3.11003e-06 822.72 3.11003e-06C754.08 3.11003e-06 685.92 3.11003e-06 617.28 3.11003e-06C548.8 3.11003e-06 480 3.11003e-06 411.523 3.11003e-06C342.878 3.11003e-06 274.718 3.11003e-06 206.083 3.11003e-06C137.597 3.11003e-06 68.8033 3.11003e-06 34.4017 3.11003e-06H8.9407e-07V86.7741Z" fill="#314E4B"/>
</g>
<defs>
<filter id="filter0_d" x="-4" y="0" width="1448" height="216" filterUnits="userSpaceOnUse" color-interpolation-filters="sRGB">
<feFlood flood-opacity="0" result="BackgroundImageFix"/>
<feColorMatrix in="SourceAlpha" type="matrix" values="0 0 0 0 0 0 0 0 0 0 0 0 0 0 0 0 0 0 127 0" result="hardAlpha"/>
<feOffset dy="4"/>
<feGaussianBlur stdDeviation="2"/>
<feComposite in2="hardAlpha" operator="out"/>
<feColorMatrix type="matrix" values="0 0 0 0 0 0 0 0 0 0 0 0 0 0 0 0 0 0 0.25 0"/>
<feBlend mode="normal" in2="BackgroundImageFix" result="effect1_dropShadow"/>
<feBlend mode="normal" in="SourceGraphic" in2="effect1_dropShadow" result="shape"/>
</filter>
</defs>
</svg>
