<svg width="1440" height="209" viewBox="0 0 1440 209" fill="none" xmlns="http://www.w3.org/2000/svg">
<g filter="url(#filter0_d)">
<path d="M-15 77.3433L19.7583 72.8857C54.5167 68.3243 124.033 59.409 193.227 58.165C262.582 56.921 331.452 63.5557 400.807 66.4583C470 69.361 539.517 68.739 608.71 51.1157C678.065 33.4923 746.935 -1.13235 816.29 0.629983C885.483 2.39232 955 40.3343 1024.19 50.701C1093.55 61.0677 1162.42 43.859 1231.77 34.529C1300.97 25.199 1370.48 23.7476 1405.24 23.1256L1440 22.4V209H1405.24C1370.48 209 1300.97 209 1231.77 209C1162.42 209 1093.55 209 1024.19 209C955 209 885.483 209 816.29 209C746.935 209 678.065 209 608.71 209C539.517 209 470 209 400.807 209C331.452 209 262.582 209 193.227 209C124.033 209 54.5167 209 19.7583 209H-15V77.3433Z" fill="#29423F"/>
<path d="M-15 121.92L19.7583 113.108C54.5167 104.297 124.033 86.6733 193.227 89.9907C262.582 93.2043 331.452 117.462 400.807 124.719C470 131.976 539.517 122.231 608.71 114.871C678.065 107.407 746.935 102.223 816.29 99.1133C885.483 96.0033 955 94.9667 1024.19 100.668C1093.55 106.37 1162.42 118.81 1231.77 118.499C1300.97 118.084 1370.48 105.022 1405.24 98.3877L1440 91.8567V209H1405.24C1370.48 209 1300.97 209 1231.77 209C1162.42 209 1093.55 209 1024.19 209C955 209 885.483 209 816.29 209C746.935 209 678.065 209 608.71 209C539.517 209 470 209 400.807 209C331.452 209 262.582 209 193.227 209C124.033 209 54.5167 209 19.7583 209H-15V121.92Z" fill="#314E4B"/>
</g>
<defs>
<filter id="filter0_d" x="-19" y="0.565186" width="1463" height="216.435" filterUnits="userSpaceOnUse" color-interpolation-filters="sRGB">
<feFlood flood-opacity="0" result="BackgroundImageFix"/>
<feColorMatrix in="SourceAlpha" type="matrix" values="0 0 0 0 0 0 0 0 0 0 0 0 0 0 0 0 0 0 127 0" result="hardAlpha"/>
<feOffset dy="4"/>
<feGaussianBlur stdDeviation="2"/>
<feComposite in2="hardAlpha" operator="out"/>
<feColorMatrix type="matrix" values="0 0 0 0 0 0 0 0 0 0 0 0 0 0 0 0 0 0 0.25 0"/>
<feBlend mode="normal" in2="BackgroundImageFix" result="effect1_dropShadow"/>
<feBlend mode="normal" in="SourceGraphic" in2="effect1_dropShadow" result="shape"/>
</filter>
</defs>
</svg>
